<svg xmlns="http://www.w3.org/2000/svg" xmlns:xlink="http://www.w3.org/1999/xlink" width="220" height="220" version="1.1" viewBox="0 0 220 220"><g id="Page-1" fill="none" fill-rule="evenodd" stroke="none" stroke-width="1" opacity=".8"><g id="wallet_add_wallet_notification_big" transform="translate(-1526.000000, -734.000000)"><g id="notification" transform="translate(720.000000, 168.000000)"><g id="description" transform="translate(660.000000, 566.000000)"><g id="checked-light" transform="translate(146.000000, 0.000000)"><path id="Combined-Shape" fill="#FAFBFC" d="M110,220 C49.2486775,220 0,170.751322 0,110 C0,49.2486775 49.2486775,0 110,0 C170.751322,0 220,49.2486775 220,110 C220,170.751322 170.751322,220 110,220 Z M110,205 C162.467051,205 205,162.467051 205,110 C205,57.5329488 162.467051,15 110,15 C57.5329488,15 15,57.5329488 15,110 C15,162.467051 57.5329488,205 110,205 Z" opacity=".2"/><path id="Combined-Shape" fill="#FFF" d="M90,110 L145,110 L145,125 L75,125 L75,117.5 L75,85 L90,85 L90,110 Z" opacity=".6" transform="translate(110.000000, 105.000000) rotate(-45.000000) translate(-110.000000, -105.000000)"/></g></g></g></g></g></svg>